<svg width="960" height="220" viewBox="0 0 960 220" fill="none" xmlns="http://www.w3.org/2000/svg" role="img" aria-label="LocalVRAM logo - hardware lab">
  <defs>
    <linearGradient id="labAccentA" x1="0" y1="0" x2="160" y2="160" gradientUnits="userSpaceOnUse">
      <stop stop-color="#06B6D4"/>
      <stop offset="1" stop-color="#2563EB"/>
    </linearGradient>
    <linearGradient id="labAccentB" x1="30" y1="30" x2="130" y2="130" gradientUnits="userSpaceOnUse">
      <stop stop-color="#FB923C"/>
      <stop offset="1" stop-color="#F43F5E"/>
    </linearGradient>
  </defs>

  <polygon points="112,26 176,62 176,136 112,172 48,136 48,62" fill="#0B1220" stroke="#334155" stroke-width="3"/>
  <circle cx="112" cy="99" r="28" fill="none" stroke="url(#labAccentA)" stroke-width="10"/>
  <path d="M112 52V34M151 74L167 64M151 124L167 134M112 146V164M73 124L57 134M73 74L57 64" stroke="url(#labAccentB)" stroke-width="6" stroke-linecap="round"/>
  <path d="M176 62L212 62M176 136L212 136" stroke="#38BDF8" stroke-width="4" stroke-linecap="round"/>

  <text x="244" y="108" fill="#E2E8F0" font-size="76" font-weight="700" font-family="'Sora','Segoe UI',sans-serif" letter-spacing="0.4">Local</text>
  <text x="484" y="108" fill="#FB923C" font-size="76" font-weight="800" font-family="'Sora','Segoe UI',sans-serif" letter-spacing="1">VRAM</text>
  <path d="M246 132H596" stroke="url(#labAccentA)" stroke-width="7" stroke-linecap="round"/>
</svg>
