<svg width="960" height="220" viewBox="0 0 960 220" fill="none" xmlns="http://www.w3.org/2000/svg" role="img" aria-label="LocalVRAM logo - hardware lab chip core">
  <defs>
    <linearGradient id="c1" x1="0" y1="0" x2="180" y2="180" gradientUnits="userSpaceOnUse">
      <stop stop-color="#06B6D4"/>
      <stop offset="1" stop-color="#2563EB"/>
    </linearGradient>
    <linearGradient id="c2" x1="20" y1="20" x2="160" y2="160" gradientUnits="userSpaceOnUse">
      <stop stop-color="#FB923C"/>
      <stop offset="1" stop-color="#F43F5E"/>
    </linearGradient>
  </defs>

  <rect x="34" y="36" width="156" height="156" rx="24" fill="#0B1220" stroke="#334155" stroke-width="3"/>
  <rect x="64" y="66" width="96" height="96" rx="14" fill="none" stroke="url(#c1)" stroke-width="10"/>
  <circle cx="112" cy="114" r="20" fill="none" stroke="url(#c2)" stroke-width="8"/>
  <path d="M46 76H30M46 112H30M46 148H30M194 76H210M194 112H210M194 148H210M76 24V8M112 24V8M148 24V8M76 204V220M112 204V220M148 204V220" stroke="#38BDF8" stroke-width="5" stroke-linecap="round"/>

  <text x="244" y="108" fill="#E2E8F0" font-size="76" font-weight="700" font-family="'Sora','Segoe UI',sans-serif">Local</text>
  <text x="484" y="108" fill="#FB923C" font-size="76" font-weight="800" font-family="'Sora','Segoe UI',sans-serif" letter-spacing="1">VRAM</text>
  <rect x="246" y="126" width="360" height="7" rx="3.5" fill="url(#c1)" opacity="0.8"/>
</svg>
